<?xml version="1.0" encoding="UTF-8" standalone="no"?>
<!-- Created with Inkscape (http://www.inkscape.org/) -->

<svg
   xmlns:osb="http://www.openswatchbook.org/uri/2009/osb"
   xmlns:dc="http://purl.org/dc/elements/1.1/"
   xmlns:cc="http://creativecommons.org/ns#"
   xmlns:rdf="http://www.w3.org/1999/02/22-rdf-syntax-ns#"
   xmlns:svg="http://www.w3.org/2000/svg"
   xmlns="http://www.w3.org/2000/svg"
   xmlns:sodipodi="http://sodipodi.sourceforge.net/DTD/sodipodi-0.dtd"
   xmlns:inkscape="http://www.inkscape.org/namespaces/inkscape"
   width="210mm"
   height="297mm"
   id="svg2"
   version="1.1"
   inkscape:version="0.48.5 r10040"
   sodipodi:docname="Nummer5.svg">
  <defs
     id="defs4">
    <marker
       inkscape:stockid="TriangleOutM"
       orient="auto"
       refY="0.0"
       refX="0.0"
       id="TriangleOutM"
       style="overflow:visible">
      <path
         id="path4118"
         d="M 5.77,0.0 L -2.88,5.0 L -2.88,-5.0 L 5.77,0.0 z "
         style="fill-rule:evenodd;stroke:#000000;stroke-width:1.0pt"
         transform="scale(0.4)" />
    </marker>
    <marker
       inkscape:stockid="TriangleOutS"
       orient="auto"
       refY="0.0"
       refX="0.0"
       id="TriangleOutS"
       style="overflow:visible">
      <path
         id="path4121"
         d="M 5.77,0.0 L -2.88,5.0 L -2.88,-5.0 L 5.77,0.0 z "
         style="fill-rule:evenodd;stroke:#000000;stroke-width:1.0pt"
         transform="scale(0.2)" />
    </marker>
    <marker
       inkscape:stockid="TriangleInS"
       orient="auto"
       refY="0.0"
       refX="0.0"
       id="TriangleInS"
       style="overflow:visible">
      <path
         id="path4112"
         d="M 5.77,0.0 L -2.88,5.0 L -2.88,-5.0 L 5.77,0.0 z "
         style="fill-rule:evenodd;stroke:#000000;stroke-width:1.0pt"
         transform="scale(-0.2)" />
    </marker>
    <marker
       inkscape:stockid="Arrow2Mstart"
       orient="auto"
       refY="0.0"
       refX="0.0"
       id="Arrow2Mstart"
       style="overflow:visible">
      <path
         id="path9736"
         style="fill-rule:evenodd;stroke-width:0.62500000;stroke-linejoin:round"
         d="M 8.7185878,4.0337352 L -2.2072895,0.016013256 L 8.7185884,-4.0017078 C 6.9730900,-1.6296469 6.9831476,1.6157441 8.7185878,4.0337352 z "
         transform="scale(0.6) translate(0,0)" />
    </marker>
    <marker
       inkscape:stockid="Arrow2Mend"
       orient="auto"
       refY="0.0"
       refX="0.0"
       id="Arrow2Mend"
       style="overflow:visible;">
      <path
         id="path9739"
         style="fill-rule:evenodd;stroke-width:0.62500000;stroke-linejoin:round;"
         d="M 8.7185878,4.0337352 L -2.2072895,0.016013256 L 8.7185884,-4.0017078 C 6.9730900,-1.6296469 6.9831476,1.6157441 8.7185878,4.0337352 z "
         transform="scale(0.6) rotate(180) translate(0,0)" />
    </marker>
    <linearGradient
       id="linearGradient8158"
       osb:paint="solid">
      <stop
         style="stop-color:#000000;stop-opacity:1;"
         offset="0"
         id="stop8160" />
    </linearGradient>
    <inkscape:perspective
       sodipodi:type="inkscape:persp3d"
       inkscape:vp_x="0 : 526.18109 : 1"
       inkscape:vp_y="0 : 1000 : 0"
       inkscape:vp_z="744.09448 : 526.18109 : 1"
       inkscape:persp3d-origin="372.04724 : 350.78739 : 1"
       id="perspective7267" />
    <inkscape:path-effect
       effect="skeletal"
       id="path-effect4063"
       is_visible="true"
       pattern="M 0,0 0,10 10,5 z"
       copytype="single_stretched"
       prop_scale="1"
       scale_y_rel="false"
       spacing="0"
       normal_offset="0"
       tang_offset="0"
       prop_units="false"
       vertical_pattern="false"
       fuse_tolerance="0" />
    <marker
       inkscape:stockid="TriangleOutM"
       orient="auto"
       refY="0"
       refX="0"
       id="TriangleOutM-5"
       style="overflow:visible">
      <path
         inkscape:connector-curvature="0"
         id="path4118-2"
         d="m 5.77,0 -8.65,5 0,-10 8.65,5 z"
         style="fill-rule:evenodd;stroke:#000000;stroke-width:1pt"
         transform="scale(0.4,0.4)" />
    </marker>
    <marker
       inkscape:stockid="TriangleOutM"
       orient="auto"
       refY="0"
       refX="0"
       id="marker11052"
       style="overflow:visible">
      <path
         inkscape:connector-curvature="0"
         id="path11054"
         d="m 5.77,0 -8.65,5 0,-10 8.65,5 z"
         style="fill-rule:evenodd;stroke:#000000;stroke-width:1pt"
         transform="scale(0.4,0.4)" />
    </marker>
    <marker
       inkscape:stockid="TriangleOutM"
       orient="auto"
       refY="0"
       refX="0"
       id="marker11056"
       style="overflow:visible">
      <path
         inkscape:connector-curvature="0"
         id="path11058"
         d="m 5.77,0 -8.65,5 0,-10 8.65,5 z"
         style="fill-rule:evenodd;stroke:#000000;stroke-width:1pt"
         transform="scale(0.4,0.4)" />
    </marker>
  </defs>
  <sodipodi:namedview
     id="base"
     pagecolor="#ffffff"
     bordercolor="#666666"
     borderopacity="1.0"
     inkscape:pageopacity="0.0"
     inkscape:pageshadow="2"
     inkscape:zoom="1.4142136"
     inkscape:cx="500.7298"
     inkscape:cy="912.18114"
     inkscape:document-units="px"
     inkscape:current-layer="layer1"
     showgrid="true"
     inkscape:snap-global="false"
     showguides="false"
     inkscape:snap-grids="true"
     inkscape:snap-bbox="true"
     inkscape:snap-object-midpoints="false"
     inkscape:snap-bbox-edge-midpoints="false"
     inkscape:object-paths="false"
     inkscape:bbox-paths="true"
     inkscape:bbox-nodes="true"
     inkscape:snap-intersection-paths="true"
     inkscape:object-nodes="true"
     inkscape:window-width="1596"
     inkscape:window-height="861"
     inkscape:window-x="0"
     inkscape:window-y="37"
     inkscape:window-maximized="0"
     inkscape:snap-center="true">
    <inkscape:grid
       type="xygrid"
       id="grid5654" />
  </sodipodi:namedview>
  <metadata
     id="metadata7">
    <rdf:RDF>
      <cc:Work
         rdf:about="">
        <dc:format>image/svg+xml</dc:format>
        <dc:type
           rdf:resource="http://purl.org/dc/dcmitype/StillImage" />
        <dc:title></dc:title>
      </cc:Work>
    </rdf:RDF>
  </metadata>
  <g
     inkscape:label="Ebene 1"
     inkscape:groupmode="layer"
     id="layer1">
    <flowRoot
       xml:space="preserve"
       id="flowRoot8494"
       style="font-size:12px;font-style:normal;font-variant:normal;font-weight:normal;font-stretch:normal;text-align:start;line-height:125%;letter-spacing:0px;word-spacing:0px;writing-mode:lr-tb;text-anchor:start;fill:#000000;fill-opacity:1;stroke:#000000;stroke-width:0.2;stroke-miterlimit:4;stroke-opacity:1;stroke-dasharray:none;font-family:Sans;-inkscape-font-specification:Sans"
       transform="matrix(5.0833952,0,0,5.0833952,-974.88006,-2297.0329)"><flowRegion
         id="flowRegion8496"><rect
           style="stroke:#000000;stroke-width:0.2;stroke-miterlimit:4;stroke-opacity:1;stroke-dasharray:none"
           id="rect8498"
           width="31.643028"
           height="24.748737"
           x="270.29156"
           y="523.09277" /></flowRegion><flowPara
         style="font-size:4px;stroke:#000000;stroke-width:0.2;stroke-miterlimit:4;stroke-opacity:1;stroke-dasharray:none"
         id="flowPara8504" /></flowRoot>    <flowRoot
       xml:space="preserve"
       id="flowRoot8879"
       style="font-size:4px;font-style:normal;font-variant:normal;font-weight:normal;font-stretch:normal;text-align:start;line-height:125%;letter-spacing:0px;word-spacing:0px;writing-mode:lr-tb;text-anchor:start;fill:#000000;fill-opacity:1;stroke:none;font-family:Sans;-inkscape-font-specification:Sans"
       transform="matrix(5.0833952,0,0,5.0833952,-974.88006,-2297.0329)"><flowRegion
         id="flowRegion8881"><rect
           id="rect8883"
           width="21.375"
           height="16"
           x="213.25"
           y="506.36218"
           style="font-size:4px" /></flowRegion><flowPara
         id="flowPara8885" /></flowRoot>    <text
       xml:space="preserve"
       style="font-size:61.00074387px;font-style:normal;font-variant:normal;font-weight:normal;font-stretch:normal;text-align:start;line-height:125%;letter-spacing:0px;word-spacing:0px;writing-mode:lr-tb;text-anchor:start;fill:#000000;fill-opacity:1;stroke:none;font-family:Sans;-inkscape-font-specification:Sans"
       x="133.93552"
       y="288.44382"
       id="text8887"
       sodipodi:linespacing="125%"><tspan
         y="288.44382"
         x="133.93552"
         sodipodi:role="line"
         id="tspan8889" /></text>
    <flowRoot
       xml:space="preserve"
       id="flowRoot8957"
       style="font-size:12px;font-style:normal;font-variant:normal;font-weight:normal;font-stretch:normal;text-align:start;line-height:125%;letter-spacing:0px;word-spacing:0px;writing-mode:lr-tb;text-anchor:start;fill:#000000;fill-opacity:1;stroke:none;font-family:Sans;-inkscape-font-specification:Sans"
       transform="matrix(5.0833952,0,0,5.0833952,-974.88006,-2297.0329)"><flowRegion
         id="flowRegion8959"><rect
           id="rect8961"
           width="33.5"
           height="116.625"
           x="231.75"
           y="512.11218" /></flowRegion><flowPara
         id="flowPara8963" /></flowRoot>    <path
       style="fill:none;stroke:#000000;stroke-width:0.68826747;stroke-linecap:butt;stroke-linejoin:miter;stroke-miterlimit:4;stroke-opacity:1;stroke-dasharray:none;marker-start:none;marker-mid:none;marker-end:none"
       d="m 117.88648,256.56315 0,-152.04827 m 0,152.04827 177.19617,0 -2.72607,-4.34422"
       id="path9706"
       inkscape:connector-curvature="0"
       sodipodi:nodetypes="cccc" />
    <path
       style="fill:none;stroke:#000000;stroke-width:1.01667905;stroke-linecap:butt;stroke-linejoin:miter;stroke-miterlimit:4;stroke-opacity:1;stroke-dasharray:none"
       d="m 112.96651,108.10005 5.0834,-5.08339 5.08339,5.08339"
       id="path12178"
       inkscape:connector-curvature="0" />
    <path
       style="fill:none;stroke:#000000;stroke-width:0.75146437;stroke-linecap:butt;stroke-linejoin:miter;stroke-miterlimit:4;stroke-opacity:1;stroke-dasharray:none"
       d="m 295.2987,256.5386 -3.23589,4.21474"
       id="path12180"
       inkscape:connector-curvature="0"
       inkscape:transform-center-y="-0.22359749" />
    <text
       xml:space="preserve"
       style="font-size:61.00074387px;font-style:normal;font-variant:normal;font-weight:normal;font-stretch:normal;text-align:start;line-height:125%;letter-spacing:0px;word-spacing:0px;writing-mode:lr-tb;text-anchor:start;fill:#000000;fill-opacity:1;stroke:none;font-family:Sans;-inkscape-font-specification:Sans"
       x="95.00631"
       y="110.15594"
       id="text3054"
       sodipodi:linespacing="125%"><tspan
         sodipodi:role="line"
         id="tspan3056"
         x="95.00631"
         y="110.15594"
         style="font-size:20.33358002px">y</tspan></text>
    <text
       xml:space="preserve"
       style="font-size:61.00074387px;font-style:normal;font-variant:normal;font-weight:normal;font-stretch:normal;text-align:start;line-height:125%;letter-spacing:0px;word-spacing:0px;writing-mode:lr-tb;text-anchor:start;fill:#000000;fill-opacity:1;stroke:none;font-family:Sans;-inkscape-font-specification:Sans"
       x="301.68781"
       y="273.85559"
       id="text3058"
       sodipodi:linespacing="125%"
       inkscape:transform-center-x="0.97070312"
       inkscape:transform-center-y="0.53033009"><tspan
         sodipodi:role="line"
         id="tspan3060"
         x="301.68781"
         y="273.85559"
         style="font-size:20.33358002px">x</tspan></text>
    <text
       xml:space="preserve"
       style="font-size:61.00074387px;font-style:normal;font-variant:normal;font-weight:normal;font-stretch:normal;text-align:start;line-height:125%;letter-spacing:0px;word-spacing:0px;writing-mode:lr-tb;text-anchor:start;fill:#000000;fill-opacity:1;stroke:none;font-family:Sans;-inkscape-font-specification:Sans"
       x="-39.410618"
       y="178.7346"
       id="text3062"
       sodipodi:linespacing="125%"><tspan
         sodipodi:role="line"
         id="tspan3064"
         x="-39.410618"
         y="178.7346" /></text>
    <text
       xml:space="preserve"
       style="font-size:61.00074387px;font-style:normal;font-variant:normal;font-weight:normal;font-stretch:normal;text-align:start;line-height:125%;letter-spacing:0px;word-spacing:0px;writing-mode:lr-tb;text-anchor:start;fill:#000000;fill-opacity:1;stroke:none;font-family:Sans;-inkscape-font-specification:Sans"
       x="187.98746"
       y="133.33768"
       id="text8796"
       sodipodi:linespacing="125%"><tspan
         sodipodi:role="line"
         id="tspan8798"
         x="187.98746"
         y="133.33768"
         style="font-size:20.33358002px">e<tspan
   style="font-size:13.21701336px;baseline-shift:sub"
   id="tspan8800">1</tspan></tspan></text>
    <text
       xml:space="preserve"
       style="font-size:61.00074387px;font-style:normal;font-variant:normal;font-weight:normal;font-stretch:normal;text-align:start;line-height:125%;letter-spacing:0px;word-spacing:0px;writing-mode:lr-tb;text-anchor:start;fill:#000000;fill-opacity:1;stroke:none;font-family:Sans;-inkscape-font-specification:Sans"
       x="249.76877"
       y="193.34219"
       id="text8802"
       sodipodi:linespacing="125%"><tspan
         sodipodi:role="line"
         id="tspan8804"
         x="249.76877"
         y="193.34219"
         style="font-size:20.33358002px">e<tspan
   style="font-size:13.21701336px;baseline-shift:sub"
   id="tspan8806">2</tspan></tspan></text>
    <path
       style="fill:#000080;stroke:#000082;stroke-width:1.39244258;stroke-linecap:butt;stroke-linejoin:miter;stroke-miterlimit:4;stroke-opacity:1;stroke-dasharray:1.39244249, 1.39244249;stroke-dashoffset:0"
       d="m 208.05737,145.57738 33.62539,0.15606"
       id="path10444"
       inkscape:connector-curvature="0" />
    <path
       style="fill:none;stroke:#000000;stroke-width:1.39244258;stroke-linecap:butt;stroke-linejoin:miter;stroke-miterlimit:4;stroke-opacity:1;stroke-dasharray:none;marker-end:url(#TriangleOutM)"
       d="m 208.17342,179.89879 0,-55.6977"
       id="path7820"
       inkscape:connector-curvature="0" />
    <path
       style="fill:#000080;fill-opacity:1;fill-rule:nonzero;stroke:#000080;stroke-width:1.39244258;stroke-linecap:butt;stroke-linejoin:miter;stroke-miterlimit:4;stroke-opacity:1;stroke-dasharray:1.39244249, 1.39244249;stroke-dashoffset:0"
       d="m 241.37857,145.50169 -0.15606,33.62544"
       id="path10444-1"
       inkscape:connector-curvature="0" />
    <path
       style="fill:none;stroke:#000000;stroke-width:1.39244258;stroke-linecap:butt;stroke-linejoin:miter;stroke-miterlimit:4;stroke-opacity:1;stroke-dasharray:none;marker-end:url(#TriangleOutM)"
       d="m 208.64038,179.28085 55.6977,0"
       id="path8392"
       inkscape:connector-curvature="0" />
    <path
       style="fill:#000080;stroke:#000080;stroke-width:1.06305253999999993;stroke-linecap:butt;stroke-linejoin:miter;stroke-miterlimit:4;stroke-opacity:1;stroke-dasharray:none;marker-end:url(#TriangleOutM);fill-opacity:1"
       d="m 208.03068,179.21289 31.703,-31.70565"
       id="path8584"
       inkscape:connector-curvature="0" />
    <text
       xml:space="preserve"
       style="font-size:61.00074387px;font-style:normal;font-variant:normal;font-weight:normal;font-stretch:normal;text-align:start;line-height:125%;letter-spacing:0px;word-spacing:0px;writing-mode:lr-tb;text-anchor:start;fill:#000080;fill-opacity:1;stroke:none;font-family:Sans;-inkscape-font-specification:Sans"
       x="217.20016"
       y="142.42374"
       id="text11013"
       sodipodi:linespacing="125%"><tspan
         sodipodi:role="line"
         id="tspan11015"
         x="217.20016"
         y="142.42374"
         style="font-size:20.33358002px;fill:#000080">α</tspan></text>
    <text
       xml:space="preserve"
       style="font-size:61.00074387px;font-style:normal;font-variant:normal;font-weight:normal;font-stretch:normal;text-align:start;line-height:125%;letter-spacing:0px;word-spacing:0px;writing-mode:lr-tb;text-anchor:start;fill:#000080;fill-opacity:1;stroke:none;font-family:Sans;-inkscape-font-specification:Sans"
       x="244.20523"
       y="168.14291"
       id="text11017"
       sodipodi:linespacing="125%"><tspan
         sodipodi:role="line"
         id="tspan11019"
         x="244.20523"
         y="168.14291"
         style="font-size:20.33358002px;fill:#000080">β</tspan></text>
    <path
       style="fill:none;stroke:#000000;stroke-width:1.01667905;stroke-linecap:butt;stroke-linejoin:miter;stroke-miterlimit:4;stroke-opacity:1;stroke-dasharray:none"
       d="m 206.76507,117.2953 c -3.43033,0.0615 -6.85776,0.50326 -10.22973,1.13665 -4.62456,0.86845 -6.55941,-4.28901 -13.63961,3.63722 -2.84889,3.18932 -10.22713,2.18708 -11.13899,6.36517 -2.16868,9.93657 -12.47511,5.40243 -14.54898,11.59365 -2.44334,7.29427 -2.86399,16.00106 -6.02413,23.41468 -2.42839,5.69691 -8.95293,9.66114 -9.77501,15.79919 -0.65566,4.89536 2.62954,9.527 4.20549,14.20794 1.91298,5.68201 2.96057,11.88731 6.36517,16.82222 2.75876,3.99876 7.25487,5.93045 10.91166,9.66135 3.65685,3.73096 4.89974,7.83646 7.72915,11.48004 2.86384,3.6879 5.08899,8.48281 9.32036,10.45705 4.53423,2.11556 10.00834,0.16775 15.00359,0.45445 4.47938,0.25773 9.02328,2.06818 13.41228,1.1366 5.07577,-1.07737 8.61397,-6.21089 13.63967,-7.50177 5.06413,-1.30074 15.68552,0 15.68552,0 0,0 8.89427,-2.01978 12.7303,-9.54773 2.5417,-4.98793 7.61254,-8.2775 10.68438,-12.95763 2.1943,-3.34314 4.07505,-6.93141 5.45586,-10.68438 1.58658,-4.31229 2.56996,-8.85838 3.18256,-13.41228 0.58627,-4.35835 0.45445,-13.18496 0.45445,-13.18496 0,0 -1.33546,-1.34872 -2.50062,-14.09427 -0.46005,-5.03388 -6.13779,-13.86694 -6.13779,-13.86694 0,0 -8.50508,-6.44372 -7.95648,-10.91166 1.16979,-9.5273 -11.36632,-9.54774 -11.36632,-9.54774 0,0 -9.74711,1.29367 -15.68558,-7.7291 -1.79861,-2.73273 -9.54768,-2.27329 -9.54768,-2.27329 0,0 -3.79039,-0.0254 -5.68299,-0.11336 -1.51805,-0.0722 -3.027,-0.36855 -4.54653,-0.3411 z"
       id="path11034"
       inkscape:connector-curvature="0"
       sodipodi:nodetypes="aasssaaaazaaaaacsaaacscscscaa" />
    <text
       xml:space="preserve"
       style="font-size:20.33358002px;font-style:normal;font-variant:normal;font-weight:normal;font-stretch:normal;text-align:start;line-height:125%;letter-spacing:0px;word-spacing:0px;writing-mode:lr-tb;text-anchor:start;fill:#000000;fill-opacity:1;stroke:none;font-family:Sans;-inkscape-font-specification:Sans"
       x="151.75191"
       y="126.38842"
       id="text11036"
       sodipodi:linespacing="125%"><tspan
         sodipodi:role="line"
         id="tspan11038"
         x="151.75191"
         y="126.38842">U</tspan></text>
    <path
       style="fill:none;stroke:#000000;stroke-width:2.5416975;stroke-linecap:butt;stroke-linejoin:miter;stroke-miterlimit:4;stroke-opacity:1;stroke-dasharray:none;marker-end:url(#marker11056)"
       d="m 321.38572,155.00469 76.25092,0"
       id="path11319"
       inkscape:connector-curvature="0" />
    <path
       style="fill:none;stroke:#000080;stroke-width:2.5416975;stroke-linecap:butt;stroke-linejoin:miter;stroke-miterlimit:4;stroke-opacity:1;stroke-dasharray:none;marker-end:url(#marker11056)"
       d="m 321.38572,205.83864 76.25092,0"
       id="path11321"
       inkscape:connector-curvature="0" />
    <text
       xml:space="preserve"
       style="font-size:61.00074387px;font-style:normal;font-variant:normal;font-weight:normal;font-stretch:normal;text-align:start;line-height:125%;letter-spacing:0px;word-spacing:0px;writing-mode:lr-tb;text-anchor:start;fill:#000000;fill-opacity:1;stroke:none;font-family:Sans;-inkscape-font-specification:Sans"
       x="354.61411"
       y="146.39049"
       id="text12305"
       sodipodi:linespacing="125%"><tspan
         sodipodi:role="line"
         id="tspan12307"
         x="354.61411"
         y="146.39049"
         style="font-size:20.33358002px">x</tspan></text>
    <text
       xml:space="preserve"
       style="font-size:61.00074387px;font-style:normal;font-variant:normal;font-weight:normal;font-stretch:normal;text-align:start;line-height:125%;letter-spacing:0px;word-spacing:0px;writing-mode:lr-tb;text-anchor:start;fill:#000000;fill-opacity:1;stroke:none;font-family:Sans;-inkscape-font-specification:Sans"
       x="196.30803"
       y="194.5864"
       id="text12338"
       sodipodi:linespacing="125%"><tspan
         sodipodi:role="line"
         id="tspan12340"
         x="196.30803"
         y="194.5864"
         style="font-size:20.33358002px">q</tspan></text>
    <path
       sodipodi:type="arc"
       style="opacity:1;fill:#000000;fill-opacity:1;stroke:#000000;stroke-width:0.20000000000000001;stroke-miterlimit:4;stroke-opacity:1;stroke-dasharray:none"
       id="path8987"
       sodipodi:cx="192.5"
       sodipodi:cy="504.86218"
       sodipodi:rx="2.5"
       sodipodi:ry="2.5"
       d="m 195,504.86218 a 2.5,2.5 0 1 1 -4e-5,-0.0133 l -2.49996,0.0133 z"
       sodipodi:start="0"
       sodipodi:end="6.2778499"
       transform="matrix(1.1995447,0,0,1.1995447,-22.897035,-426.36288)" />
    <path
       style="fill:#000080;fill-opacity:1;fill-rule:nonzero;stroke:#000080;stroke-width:0;stroke-miterlimit:4;stroke-opacity:1;stroke-dasharray:none;stroke-dashoffset:0"
       d="m 394.16882,205.89855 c 0,-3.25602 0.062,-5.92008 0.13827,-5.92008 0.39752,0 10.07834,5.78694 9.92802,5.93482 -0.0976,0.0961 -1.96758,1.21162 -4.15563,2.47927 -2.18799,1.26765 -4.41294,2.5571 -4.94436,2.86546 l -0.9661,0.56065 0,-5.92012 z"
       id="path12303"
       inkscape:connector-curvature="0" />
    <path
       style="fill:none;stroke:#000000;stroke-width:1.01667905;stroke-linecap:butt;stroke-linejoin:miter;stroke-miterlimit:4;stroke-opacity:1;stroke-dasharray:none"
       d="m 407.22891,272.31947 -7.1775,0.40616 -0.40617,-7.1775"
       id="path12178-6-1"
       inkscape:connector-curvature="0" />
    <text
       xml:space="preserve"
       style="font-size:61.00074387px;font-style:normal;font-variant:normal;font-weight:normal;font-stretch:normal;text-align:start;line-height:125%;letter-spacing:0px;word-spacing:0px;writing-mode:lr-tb;text-anchor:start;fill:#000000;fill-opacity:1;stroke:none;font-family:Sans;-inkscape-font-specification:Sans"
       x="405.9447"
       y="288.10544"
       id="text4444"
       sodipodi:linespacing="125%"><tspan
         sodipodi:role="line"
         id="tspan4446"
         x="405.9447"
         y="288.10544"
         style="font-size:20.33358002px">x<tspan
   style="font-size:13.21701336px;baseline-shift:sub"
   id="tspan4448">1</tspan></tspan></text>
    <path
       style="fill:none;stroke:#000000;stroke-width:1.01667905;stroke-linecap:butt;stroke-linejoin:miter;stroke-miterlimit:4;stroke-opacity:1;stroke-dasharray:none"
       d="m 472.05572,95.96794 5.08339,-5.08339 5.0834,5.08339"
       id="path12178-6"
       inkscape:connector-curvature="0" />
    <text
       xml:space="preserve"
       style="font-size:61.00074387px;font-style:normal;font-variant:normal;font-weight:normal;font-stretch:normal;text-align:start;line-height:125%;letter-spacing:0px;word-spacing:0px;writing-mode:lr-tb;text-anchor:start;fill:#000000;fill-opacity:1;stroke:none;font-family:Sans;-inkscape-font-specification:Sans"
       x="657.1311"
       y="210.68185"
       id="text4450"
       sodipodi:linespacing="125%"><tspan
         sodipodi:role="line"
         id="tspan4452"
         x="657.1311"
         y="210.68185"
         style="font-size:20.33358002px">x<tspan
   style="font-size:13.21701336px;baseline-shift:sub"
   id="tspan4454">2</tspan></tspan></text>
    <text
       xml:space="preserve"
       style="font-size:61.00074387px;font-style:normal;font-variant:normal;font-weight:normal;font-stretch:normal;text-align:start;line-height:125%;letter-spacing:0px;word-spacing:0px;writing-mode:lr-tb;text-anchor:start;fill:#000000;fill-opacity:1;stroke:none;font-family:Sans;-inkscape-font-specification:Sans"
       x="452.51315"
       y="98.497452"
       id="text4456"
       sodipodi:linespacing="125%"><tspan
         sodipodi:role="line"
         id="tspan4458"
         x="452.51315"
         y="98.497452"
         style="font-size:20.33358002px">x<tspan
   style="font-size:13.21701336px;baseline-shift:sub"
   id="tspan4460">3</tspan></tspan></text>
    <text
       xml:space="preserve"
       style="font-size:61.00074387px;font-style:normal;font-variant:normal;font-weight:normal;font-stretch:normal;text-align:start;line-height:125%;letter-spacing:0px;word-spacing:0px;writing-mode:lr-tb;text-anchor:start;fill:#000000;fill-opacity:1;stroke:none;font-family:Sans;-inkscape-font-specification:Sans"
       x="530.75659"
       y="240.77939"
       id="text12558"
       sodipodi:linespacing="125%"><tspan
         sodipodi:role="line"
         id="tspan12560"
         x="530.75659"
         y="240.77939"
         style="font-size:20.33358002px">p</tspan></text>
    <text
       xml:space="preserve"
       style="font-size:61.00074387px;font-style:normal;font-variant:normal;font-weight:normal;font-stretch:normal;text-align:start;line-height:125%;letter-spacing:0px;word-spacing:0px;writing-mode:lr-tb;text-anchor:start;fill:#000080;fill-opacity:1;stroke:none;font-family:Sans;-inkscape-font-specification:Sans"
       x="543.90515"
       y="199.27469"
       id="text11017-5"
       sodipodi:linespacing="125%"><tspan
         sodipodi:role="line"
         id="tspan11019-4"
         x="543.90515"
         y="199.27469"
         style="font-size:20.33358002px;fill:#000080">β</tspan></text>
    <path
       style="fill:none;stroke:#000080;stroke-width:1.01667905;stroke-linecap:butt;stroke-linejoin:miter;stroke-miterlimit:4;stroke-opacity:1;stroke-dasharray:none"
       d="m 544.45679,181.66424 c 0,0 1.77283,-3.31921 3.35377,-3.31921 1.58099,0 1.77283,3.31921 3.35382,3.31921 1.58094,0 3.35377,-3.31921 3.35377,-3.31921"
       id="path12564"
       inkscape:connector-curvature="0"
       sodipodi:nodetypes="caac" />
    <text
       xml:space="preserve"
       style="font-size:61.00074387px;font-style:normal;font-variant:normal;font-weight:normal;font-stretch:normal;text-align:start;line-height:125%;letter-spacing:0px;word-spacing:0px;writing-mode:lr-tb;text-anchor:start;fill:#000080;fill-opacity:1;stroke:none;font-family:Sans;-inkscape-font-specification:Sans"
       x="492.16568"
       y="194.13553"
       id="text11013-7"
       sodipodi:linespacing="125%"><tspan
         sodipodi:role="line"
         id="tspan11015-9"
         x="492.16568"
         y="194.13553"
         style="font-size:20.33358002px;fill:#000080">α</tspan></text>
    <path
       style="fill:none;stroke:#000080;stroke-width:1.01667905;stroke-linecap:butt;stroke-linejoin:miter;stroke-miterlimit:4;stroke-opacity:1;stroke-dasharray:none"
       d="m 493.25561,180.07025 c 0,0 1.77283,-3.3192 3.35377,-3.3192 1.58099,0 1.77283,3.3192 3.35382,3.3192 1.58094,0 3.35377,-3.3192 3.35377,-3.3192"
       id="path12564-9"
       inkscape:connector-curvature="0"
       sodipodi:nodetypes="caac" />
    <path
       style="fill:none;stroke:#000000;stroke-width:0.75146437;stroke-linecap:butt;stroke-linejoin:miter;stroke-miterlimit:4;stroke-opacity:1;stroke-dasharray:none"
       d="m 653.92537,195.7993 -3.23588,4.21475"
       id="path12180-1"
       inkscape:connector-curvature="0"
       inkscape:transform-center-y="-0.22359749" />
    <path
       style="fill:#000080;stroke:#000082;stroke-width:1.79710281;stroke-linecap:butt;stroke-linejoin:miter;stroke-miterlimit:4;stroke-opacity:1;stroke-dasharray:1.79710274, 1.79710274;stroke-dashoffset:0"
       d="m 493.72985,209.30871 31.37061,-29.98762"
       id="path10444-6"
       inkscape:connector-curvature="0" />
    <path
       style="fill:none;stroke:#000000;stroke-width:1.79710281;stroke-linecap:butt;stroke-linejoin:miter;stroke-miterlimit:4;stroke-opacity:1;stroke-dasharray:none;marker-end:url(#TriangleOutM)"
       d="M 521.29722,236.80754 471.38518,185.07637"
       id="path7820-1"
       inkscape:connector-curvature="0" />
    <path
       style="fill:#000080;fill-opacity:1;fill-rule:nonzero;stroke:#000080;stroke-width:1.79710281;stroke-linecap:butt;stroke-linejoin:miter;stroke-miterlimit:4;stroke-opacity:1;stroke-dasharray:1.79710274, 1.79710274;stroke-dashoffset:0"
       d="m 526.81385,179.66909 24.74901,35.64913"
       id="path10444-1-8"
       inkscape:connector-curvature="0" />
    <path
       style="fill:none;stroke:#000000;stroke-width:1.79710281;stroke-linecap:butt;stroke-linejoin:miter;stroke-miterlimit:4;stroke-opacity:1;stroke-dasharray:none;marker-end:url(#TriangleOutM)"
       d="m 520.81591,235.96685 58.85822,-41.26781"
       id="path8392-9"
       inkscape:connector-curvature="0" />
    <path
       style="fill:none;stroke:#000080;stroke-width:1.34418499000000002;stroke-linecap:butt;stroke-linejoin:miter;stroke-miterlimit:4;stroke-opacity:1;stroke-dasharray:none;marker-end:url(#TriangleOutM)"
       d="m 520.55185,236.41198 5.11784,-54.99943"
       id="path8584-2"
       inkscape:connector-curvature="0" />
    <rect
       style="fill:none;stroke:#000000;stroke-width:1.09531868;stroke-miterlimit:4;stroke-opacity:1;stroke-dasharray:none;stroke-dashoffset:0"
       id="rect11188"
       width="157.93898"
       height="79.397102"
       x="495.3067"
       y="21.911133"
       transform="matrix(0.96250467,0.2712651,-0.5363308,0.84400786,0,0)" />
    <path
       style="fill:none;stroke:#000000;stroke-width:1.31213796;stroke-linecap:butt;stroke-linejoin:miter;stroke-miterlimit:4;stroke-opacity:1;stroke-dasharray:none"
       d="M 634.77691,191.6929 573.5921,290.17326"
       id="path11295"
       inkscape:connector-curvature="0" />
    <path
       style="fill:none;stroke:#000000;stroke-width:1.31826317;stroke-linecap:butt;stroke-linejoin:miter;stroke-miterlimit:4;stroke-opacity:1;stroke-dasharray:none"
       d="m 419.44806,244.4102 c 64.07675,-10.49279 111.36036,13.35789 154.50618,45.49491"
       id="path11299"
       inkscape:connector-curvature="0"
       sodipodi:nodetypes="cc" />
    <path
       style="fill:none;stroke:#000000;stroke-width:1.31826317;stroke-linecap:butt;stroke-linejoin:miter;stroke-miterlimit:4;stroke-opacity:1;stroke-dasharray:none"
       d="m 478.74876,151.48538 c 66.54545,-8.78772 118.09586,2.94074 155.82528,40.74839"
       id="path11299-8"
       inkscape:connector-curvature="0"
       sodipodi:nodetypes="cc" />
    <path
       sodipodi:type="arc"
       style="opacity:1;fill:#000000;fill-opacity:1;stroke:#000000;stroke-width:0.20000000000000001;stroke-miterlimit:4;stroke-opacity:1;stroke-dasharray:none"
       id="path8987-7"
       sodipodi:cx="192.5"
       sodipodi:cy="504.86218"
       sodipodi:rx="2.5"
       sodipodi:ry="2.5"
       d="m 195,504.86218 a 2.5,2.5 0 1 1 -4e-5,-0.0133 l -2.49996,0.0133 z"
       sodipodi:start="0"
       sodipodi:end="6.2778499"
       transform="matrix(1.1995447,0,0,1.1995447,289.87816,-369.64757)" />
    <path
       style="fill:none;stroke:#000000;stroke-width:1px;stroke-linecap:butt;stroke-linejoin:miter;stroke-opacity:1"
       d="M 429.66493,243.11816 399.97119,272.8119"
       id="path7437"
       inkscape:connector-curvature="0" />
    <path
       style="fill:none;stroke:#000000;stroke-width:1px;stroke-linecap:butt;stroke-linejoin:miter;stroke-opacity:1"
       d="m 476.88872,154.39467 0.35776,-63.322805"
       id="path7439"
       inkscape:connector-curvature="0" />
    <path
       style="fill:none;stroke:#000000;stroke-width:1px;stroke-linecap:butt;stroke-linejoin:miter;stroke-opacity:1"
       d="m 632.15482,195.53661 21.82311,0.35776"
       id="path7441"
       inkscape:connector-curvature="0" />
    <path
       style="fill:none;stroke:#000000;stroke-width:1px;stroke-linecap:butt;stroke-linejoin:miter;stroke-opacity:1"
       d="M 433.60025,223.08382 419.64776,244.3703"
       id="path7445"
       inkscape:connector-curvature="0" />
    <path
       style="fill:none;stroke:#000000;stroke-width:1px;stroke-linecap:butt;stroke-linejoin:miter;stroke-opacity:1"
       d="m 479.21414,150.99599 -2.68317,4.65083"
       id="path7447"
       inkscape:connector-curvature="0" />
    <path
       style="opacity:0;fill:#0064c8;fill-opacity:1;fill-rule:nonzero;stroke:none"
       d="m 535.39153,239.06837 c -0.38087,-0.20666 -0.86468,-0.70872 -1.07513,-1.11569 -0.43458,-0.84039 -0.51188,-3.42784 -0.13224,-4.42637 0.39106,-1.02856 1.48838,-1.90407 2.38646,-1.90407 1.64484,0 2.67555,1.4618 2.67555,3.79458 0,1.57814 -0.47839,2.77828 -1.3948,3.49913 -0.80913,0.63646 -1.49,0.67865 -2.45984,0.15242 l 0,0 z"
       id="path7505"
       inkscape:connector-curvature="0" />
    <path
       style="opacity:0;fill:#0064c8;fill-opacity:1;fill-rule:nonzero;stroke:#000000;stroke-opacity:1"
       d="m 535.39153,239.06837 c -0.38087,-0.20666 -0.86468,-0.70872 -1.07513,-1.11569 -0.43458,-0.84039 -0.51188,-3.42784 -0.13224,-4.42637 0.39106,-1.02856 1.48838,-1.90407 2.38646,-1.90407 1.64484,0 2.67555,1.4618 2.67555,3.79458 0,1.57814 -0.47839,2.77828 -1.3948,3.49913 -0.80913,0.63646 -1.49,0.67865 -2.45984,0.15242 l 0,0 z"
       id="path7507"
       inkscape:connector-curvature="0" />
    <path
       style="opacity:0;fill:#0064c8;fill-opacity:1;fill-rule:nonzero;stroke:#000000;stroke-width:0.12798934;stroke-miterlimit:4;stroke-opacity:1;stroke-dasharray:none;stroke-dashoffset:0"
       d="m 535.39632,239.08413 c -1.93186,-1.04985 -2.01579,-5.49446 -0.13244,-7.01356 0.72451,-0.58439 1.9733,-0.56212 2.75026,0.049 0.96253,0.75712 1.27732,1.79354 1.16242,3.82709 -0.0962,1.70177 -0.15484,1.85233 -1.03698,2.66076 -1.00735,0.92316 -1.70014,1.04354 -2.74326,0.47667 l 0,0 z"
       id="path7509"
       inkscape:connector-curvature="0" />
    <path
       style="opacity:0;fill:#0064c8;fill-opacity:1;fill-rule:nonzero;stroke:#000000;stroke-width:0.12798934;stroke-miterlimit:4;stroke-opacity:1;stroke-dasharray:none;stroke-dashoffset:0"
       d="m 535.39632,239.08413 c -1.93186,-1.04985 -2.01579,-5.49446 -0.13244,-7.01356 0.72451,-0.58439 1.9733,-0.56212 2.75026,0.049 0.96253,0.75712 1.27732,1.79354 1.16242,3.82709 -0.0962,1.70177 -0.15484,1.85233 -1.03698,2.66076 -1.00735,0.92316 -1.70014,1.04354 -2.74326,0.47667 l 0,0 z"
       id="path7511"
       inkscape:connector-curvature="0" />
    <path
       style="opacity:0;fill:#0064c8;fill-opacity:1;fill-rule:nonzero;stroke:#000000;stroke-width:0.12798934;stroke-miterlimit:4;stroke-opacity:1;stroke-dasharray:none;stroke-dashoffset:0"
       d="m 535.39632,239.08413 c -1.93186,-1.04985 -2.01579,-5.49446 -0.13244,-7.01356 0.72451,-0.58439 1.9733,-0.56212 2.75026,0.049 0.96253,0.75712 1.27732,1.79354 1.16242,3.82709 -0.0962,1.70177 -0.15484,1.85233 -1.03698,2.66076 -1.00735,0.92316 -1.70014,1.04354 -2.74326,0.47667 l 0,0 z"
       id="path7513"
       inkscape:connector-curvature="0" />
    <path
       style="opacity:0;fill:#0064c8;fill-opacity:1;fill-rule:nonzero;stroke:#000000;stroke-width:0.12798934;stroke-miterlimit:4;stroke-opacity:1;stroke-dasharray:none;stroke-dashoffset:0"
       d="m 498.94152,240.74377 c -41.28462,-11.64189 -75.12848,-21.23259 -75.20856,-21.31268 -0.10498,-0.10497 40.92784,-65.03899 41.50942,-65.68825 0.0804,-0.0897 87.08549,24.3437 87.9743,24.7056 0.41076,0.16725 0.34544,0.32026 -0.59069,1.38375 -0.57888,0.65765 -1.20172,1.19572 -1.38409,1.19572 -0.18237,0 -0.71082,-0.59765 -1.17433,-1.32811 -0.99837,-1.57336 -1.41321,-1.94169 -2.19905,-1.95248 -1.08891,-0.0149 -2.17756,0.86783 -3.36929,2.73215 -0.50928,0.79671 -0.51494,0.86604 -0.10328,1.26486 0.40771,0.395 0.46234,0.38171 0.85561,-0.20821 0.74829,-1.12246 2.11459,-2.53199 2.45436,-2.53199 0.18209,0 0.76649,0.65289 1.29866,1.45087 1.61101,2.41565 2.90522,2.39762 4.8726,-0.0679 0.60695,-0.76062 1.17191,-1.38263 1.25547,-1.38222 0.0836,5e-4 10.39728,2.88771 22.91938,6.41623 l 22.76745,6.4155 0.0654,13.91865 0.0654,13.91864 -13.31348,20.96275 c -7.32242,11.52951 -13.38521,21.03282 -13.47287,21.11848 -0.0877,0.0857 -33.93772,-9.36946 -75.22235,-21.01135 l 0,0 z m 34.96695,1.73789 0,-2.54807 0.63988,0.50332 c 2.01218,1.58279 5.17479,0.40844 6.32709,-2.3494 0.54597,-1.30668 0.53806,-4.00924 -0.0158,-5.39342 -1.02413,-2.55955 -4.29577,-3.62983 -6.29311,-2.05873 l -0.65809,0.51766 0,-0.5243 c -1e-5,-0.44304 -0.15685,-0.52431 -1.0119,-0.52431 l -1.01188,0 0,7.46267 0,7.46266 1.01188,0 1.01189,0 0,-2.54808 z m -11.75299,-3.67152 c 1.0911,-0.51776 1.71904,-1.49126 1.78086,-2.76089 l 0.0493,-1.01189 26.90673,-18.89428 c 14.7987,-10.39185 26.98241,-18.90119 27.07491,-18.90963 0.0925,-0.008 0.586,0.55383 1.09667,1.2495 0.51067,0.69567 1.00418,1.26084 1.09668,1.25594 0.1763,-0.009 3.86065,-7.89315 3.74348,-8.01032 -0.0674,-0.0674 -8.46529,0.65084 -8.82446,0.75469 -0.10436,0.0302 0.26057,0.68962 0.81094,1.46544 l 1.00068,1.41059 -12.8221,8.99406 -12.8221,8.99406 -0.36475,-0.75312 c -0.46886,-0.96809 -0.84144,-1.09634 -1.64859,-0.56748 -0.81069,0.53118 -0.81766,0.82945 -0.039,1.66916 l 0.61381,0.66197 -12.9259,9.07485 c -15.87073,11.14232 -14.12332,10.00449 -14.70544,9.5755 -0.46052,-0.33938 -0.41135,-1.03038 1.71339,-24.07788 1.20313,-13.05066 2.24697,-24.09844 2.31963,-24.55063 0.12117,-0.75408 0.20893,-0.82216 1.05979,-0.82216 0.68549,0 1.06225,0.166 1.44313,0.63585 l 0.51544,0.63585 0.75892,-0.61686 c 0.74994,-0.60956 0.75379,-0.6253 0.32557,-1.33152 -0.42898,-0.70747 -0.71093,-0.79879 -1.48213,-0.48002 -0.61357,0.25362 -1.07669,-0.92864 -0.56443,-1.4409 0.34853,-0.34853 0.34091,-0.4674 -0.0751,-1.17166 -0.30101,-0.50957 -0.60426,-0.73895 -0.86677,-0.65563 -0.27914,0.0886 -0.54231,-0.16234 -0.85256,-0.81294 l -0.44878,-0.9411 -0.47875,0.62299 c -0.26331,0.34265 -0.48128,0.72231 -0.48437,0.8437 -0.003,0.12139 -0.19613,0.0645 -0.42896,-0.12649 -0.37957,-0.3113 -0.40671,-0.28279 -0.26255,0.27591 0.21045,0.81566 -0.48396,1.66797 -1.00598,1.23473 -0.27476,-0.22803 -0.5117,-0.13592 -1.09978,0.4275 l -0.74958,0.71814 0.52478,0.55859 c 0.39697,0.42257 0.44722,0.60653 0.20632,0.75541 -0.42996,0.26573 0.37082,0.57416 1.55183,0.5977 l 0.89197,0.0178 -2.2946,24.68095 c -2.27599,24.48063 -2.37175,25.24274 -3.15743,25.1283 -0.0696,-0.0101 -5.363,-5.49305 -11.76318,-12.18427 -6.40019,-6.69121 -12.34276,-12.85685 -13.20572,-13.70141 -0.86296,-0.84457 -5.77625,-5.91006 -10.91843,-11.25665 l -9.34942,-9.72107 1.25213,-1.12577 c 0.68866,-0.61918 1.1817,-1.19619 1.09564,-1.28226 -0.0861,-0.0861 -1.99728,-0.68167 -4.24714,-1.32358 -2.90464,-0.82872 -4.1125,-1.07701 -4.16603,-0.85638 -0.0635,0.2617 0.70247,3.56558 1.75236,7.55861 l 0.2586,0.98353 1.19116,-1.17325 c 0.65514,-0.6453 1.25404,-1.17326 1.33089,-1.17326 0.0768,0 10.26137,10.49411 22.63228,23.32025 19.41319,20.12757 22.49677,23.42638 22.52338,24.09555 0.017,0.42642 0.0454,1.0796 0.0633,1.45152 0.0377,0.78586 1.28917,2.14716 2.12156,2.30768 1.10304,0.21271 1.51162,0.17391 2.34804,-0.223 l 0,0 z m 26.92287,-28.77096 c -0.005,-0.16444 -0.22892,-0.56356 -0.49842,-0.88692 -0.48233,-0.57871 -0.50203,-0.58083 -1.25645,-0.13518 -0.90873,0.5368 -0.92841,0.67049 -0.24091,1.636 l 0.52551,0.73801 0.73934,-0.52646 c 0.40664,-0.28955 0.73556,-0.66101 0.73093,-0.82545 z m -2.61751,-2.28463 0.69091,-0.5943 -0.56989,-0.80034 -0.56989,-0.80033 -0.73935,0.52646 c -0.8688,0.61864 -0.86217,0.58546 -0.30534,1.5281 0.52451,0.88793 0.61466,0.8964 1.49356,0.14041 l 0,0 z m -48.80687,-0.71466 c 0.74383,-0.69879 0.73588,-0.99129 -0.0469,-1.7267 l -0.63243,-0.59414 -0.63243,0.59414 c -0.77358,0.72674 -0.78417,0.94423 -0.0824,1.69125 0.672,0.7153 0.67056,0.71527 1.39419,0.0355 z m 46.65055,-2.1607 c 0.85373,-0.50431 0.89252,-0.74799 0.24304,-1.52653 -0.58495,-0.70118 -0.78271,-0.70702 -1.62069,-0.0479 l -0.66275,0.52132 0.54973,0.74354 c 0.64732,0.87555 0.56235,0.85791 1.49067,0.30954 z m -43.96109,-0.52957 0.68079,-0.71059 -0.71163,-0.68179 -0.71163,-0.68178 -0.72645,0.75825 -0.72644,0.75824 0.59573,0.63413 c 0.32766,0.34878 0.66844,0.63414 0.75729,0.63414 0.0889,0 0.4679,-0.31977 0.84234,-0.7106 l 0,0 z m 46.91846,-3.40099 0.0724,-2.46726 0.74242,0.54889 c 0.92972,0.68737 3.26392,0.75517 4.46846,0.12979 2.44672,-1.27029 2.9765,-5.20448 0.94145,-6.99128 -0.48173,-0.42296 -1.12804,-0.77624 -1.43626,-0.78506 -0.55281,-0.0158 -0.55327,-0.0189 -0.0338,-0.22906 0.98647,-0.39907 1.87665,-1.73674 1.87665,-2.82005 0,-2.3753 -1.61565,-3.87922 -4.17403,-3.88536 -1.78075,-0.004 -2.98236,0.5811 -3.85696,1.87892 -0.56229,0.83438 -0.57005,0.95745 -0.57005,9.04533 l 0,8.19944 0.94865,-0.0785 0.94864,-0.0785 0.0724,-2.46727 0,0 z m -44.20905,0.94208 0.60106,-0.6398 -0.7572,-0.75719 -0.75719,-0.75719 -0.73086,0.76285 -0.73087,0.76285 0.59574,0.63414 c 0.74718,0.79533 1.02767,0.79443 1.77932,-0.006 l 0,1e-5 z m 39.90685,-0.58427 c 0.0436,-0.13096 -0.19338,-0.5552 -0.52674,-0.94275 l -0.6061,-0.70463 -0.79093,0.56319 -0.79093,0.56319 0.5623,0.85781 0.56232,0.85782 0.75535,-0.47826 c 0.41545,-0.26304 0.79107,-0.58541 0.83473,-0.71637 l 0,0 z m -37.38405,-1.93809 0.59414,-0.63243 -0.59414,-0.63243 c -0.71847,-0.76477 -0.70121,-0.76476 -1.63515,-0.002 l -0.74975,0.61271 0.60412,0.64305 c 0.7545,0.80313 1.03468,0.8048 1.78078,0.0106 l 0,-1e-5 z m 34.76515,-0.4685 0.74045,-0.59247 -0.56779,-0.79738 c -0.58859,-0.82661 -0.76965,-0.82605 -1.85641,0.006 -0.41163,0.31507 -0.40645,0.38309 0.0881,1.15691 0.28898,0.45219 0.59963,0.82159 0.69031,0.8209 0.0907,-7.6e-4 0.4981,-0.26787 0.90535,-0.59373 l 0,1e-5 z m -32.15524,-1.88641 0.68079,-0.71059 -0.75825,-0.72645 -0.75824,-0.72645 -0.63413,0.59574 c -0.76728,0.72082 -0.77074,0.77159 -0.10983,1.6118 0.65427,0.83178 0.74294,0.8293 1.57966,-0.044 l 0,0 z m 30.16657,-1.13684 0.67728,-0.58257 -0.61617,-0.71634 c -0.51452,-0.59817 -0.69696,-0.67039 -1.10588,-0.43779 -1.22637,0.6976 -1.2279,0.70129 -0.63482,1.53421 0.66903,0.93956 0.8038,0.95581 1.67959,0.20249 z m -27.63685,-1.39287 0.68079,-0.7106 -0.72725,-0.69674 -0.72724,-0.69675 -0.71328,0.61353 -0.71327,0.61353 0.61733,0.77981 c 0.33953,0.4289 0.6814,0.78612 0.75972,0.79381 0.0783,0.008 0.44876,-0.30577 0.8232,-0.69659 l 0,0 z m -10.75267,-0.88806 0.72002,-0.68983 0.29083,0.6383 c 0.23979,0.52629 0.46694,0.63829 1.2945,0.63829 l 1.00368,0 -0.34856,-1.20161 c -0.88235,-3.04179 -0.95196,-4.11 -0.41628,-6.38754 0.27816,-1.18264 0.58235,-2.34947 0.67599,-2.59296 0.14534,-0.37794 0.0163,-0.4427 -0.88187,-0.4427 -0.9458,0 -1.07933,0.0781 -1.32154,0.77291 -0.25608,0.73458 -0.28635,0.74876 -0.61052,0.28595 -1.35638,-1.9365 -5.32677,-1.60877 -6.66083,0.54979 -1.73801,2.81215 -0.85385,7.81473 1.57519,8.91249 0.50601,0.22868 1.39283,0.33494 2.38268,0.2855 1.31162,-0.0655 1.69772,-0.19473 2.29671,-0.76859 l 0,0 z m 36.56671,-0.78534 c 0.45636,-0.35762 0.45393,-0.39215 -0.0805,-1.14265 -0.65874,-0.92512 -0.80239,-0.94305 -1.64012,-0.20469 l -0.64579,0.56918 0.52796,0.81888 c 0.55258,0.85705 0.69683,0.85386 1.83842,-0.0407 l 0,0 z m -23.10995,-0.77986 0.59574,-0.63413 -0.72645,-0.75825 -0.72644,-0.75824 -0.71163,0.68178 -0.71163,0.68178 0.68079,0.7106 c 0.37444,0.39082 0.75349,0.71059 0.84234,0.71059 0.0889,0 0.42963,-0.28536 0.75728,-0.63413 l 0,0 z m 21.05294,-2.19326 c 0.41163,-0.31507 0.40646,-0.38309 -0.0881,-1.15691 -0.28899,-0.45219 -0.59963,-0.82159 -0.69032,-0.8209 -0.0907,7.6e-4 -0.49809,0.26787 -0.90534,0.59373 l -0.74046,0.59247 0.56779,0.79739 c 0.58859,0.8266 0.76966,0.82604 1.85641,-0.006 l 0,-10e-6 z m -18.54011,-0.31848 0.57885,-0.61616 -0.55197,-0.77519 c -0.30359,-0.42635 -0.62338,-0.77518 -0.71065,-0.77518 -0.0873,0 -0.4784,0.30633 -0.86921,0.68075 l -0.71055,0.68075 0.6808,0.71059 c 0.82709,0.8633 0.85866,0.86518 1.58273,0.0944 l 0,0 z m 2.57249,-2.43907 0.73801,-0.52552 -0.52646,-0.73934 c -0.64382,-0.90416 -0.9882,-0.92512 -1.75686,-0.10692 l -0.59414,0.63243 0.59414,0.63243 c 0.71515,0.76125 0.63425,0.75565 1.54531,0.10692 l 0,0 z m 13.66047,0 0.73801,-0.52552 -0.52646,-0.73934 c -0.61068,-0.85763 -0.89888,-0.90152 -1.72891,-0.26331 -0.60242,0.4632 -0.60288,0.46749 -0.13519,1.25923 0.55422,0.93821 0.68317,0.9592 1.65255,0.26894 z m -10.89835,-3.89413 c -0.75165,-0.8001 -1.03214,-0.80099 -1.77932,-0.006 l -0.59573,0.63414 0.73086,0.76285 0.73086,0.76285 0.75719,-0.75719 0.7572,-0.75719 -0.60106,-0.6398 0,1e-5 z m -19.79857,-3.06821 c 0.65554,-0.42404 2.32094,-2.60853 2.33034,-3.05667 0.0112,-0.53189 -1.05232,-0.69285 -1.32761,-0.20094 -0.52635,0.94053 -2.03562,2.39739 -2.48364,2.39739 -0.26202,0 -0.63673,-0.3224 -0.84678,-0.72858 -1.61136,-3.11605 -3.53035,-3.06828 -5.73969,0.14288 -0.74153,1.07778 -0.75496,1.14228 -0.30833,1.48067 0.65039,0.49278 0.6373,0.4998 1.44103,-0.77239 0.72818,-1.15261 1.54647,-1.89338 2.09151,-1.89338 0.16324,0 0.66421,0.57256 1.11327,1.27236 1.32413,2.06347 2.16616,2.37019 3.7299,1.35866 l 0,0 z"
       id="path7515"
       inkscape:connector-curvature="0" />
    <path
       style="opacity:0;fill:#0064c8;fill-opacity:1;fill-rule:nonzero;stroke:#000000;stroke-width:0.12798934;stroke-miterlimit:4;stroke-opacity:1;stroke-dasharray:none;stroke-dashoffset:0"
       d="m 523.29924,234.21162 c -0.25068,-0.55019 -0.2398,-0.71909 0.0602,-0.93478 0.20141,-0.14479 12.3882,-8.68721 27.08175,-18.98316 14.69355,-10.29595 26.71776,-18.80502 26.72047,-18.90905 0.003,-0.10402 -0.40418,-0.75859 -0.90421,-1.45458 -0.56873,-0.79164 -0.78185,-1.26935 -0.56918,-1.27586 0.18697,-0.006 1.99058,-0.16447 4.00803,-0.35276 2.01745,-0.18829 3.6987,-0.31427 3.7361,-0.27995 0.0374,0.0343 -0.69763,1.72182 -1.63342,3.75001 l -1.70143,3.68761 -0.82735,-1.22853 c -0.45503,-0.67569 -0.91841,-1.28482 -1.02971,-1.35361 -0.11131,-0.0688 -11.81066,8.0175 -25.99855,17.96953 -14.1879,9.95204 -26.43531,18.53157 -27.21647,19.06564 l -1.4203,0.97102 -0.30597,-0.67153 0,0 z"
       id="path7517"
       inkscape:connector-curvature="0" />
    <path
       style="opacity:0.7;fill:#0064c8;fill-opacity:1;fill-rule:nonzero;stroke:#000000;stroke-width:0.12798934;stroke-miterlimit:4;stroke-opacity:1;stroke-dasharray:none;stroke-dashoffset:0"
       d="m 570.07095,286.07158 c -34.30845,-24.96658 -64.48912,-38.5038 -96.24326,-43.1689 -9.13832,-1.34254 -12.31699,-1.54111 -24.53825,-1.53292 -11.86609,0.008 -14.68068,0.17305 -24.0025,1.40791 -2.07062,0.2743 -3.8163,0.44719 -3.87928,0.38421 -0.063,-0.063 2.70326,-4.42119 6.14721,-9.6849 3.44395,-5.2637 6.27587,-9.59413 6.29315,-9.62317 0.0173,-0.029 31.72154,8.87801 70.45391,19.79344 38.73236,10.91544 70.44552,19.8185 70.47367,19.78459 0.27745,-0.33416 42.92476,-67.58906 43.02522,-67.85087 0.0923,-0.24047 -0.1714,-0.43488 -0.83405,-0.61497 -0.53295,-0.14483 -32.17704,-9.05675 -70.32021,-19.80425 l -69.35121,-19.54092 0.6694,-1.16601 c 1.39417,-2.42844 0.81327,-2.18787 6.9937,-2.89642 32.06553,-3.67617 59.42258,-2.34849 84.11308,4.08215 4.41491,1.14986 13.57258,4.20215 18.08748,6.02863 16.07469,6.50293 31.49304,16.43191 43.58179,28.06545 1.4339,1.37991 2.55871,2.63502 2.49957,2.78913 -0.177,0.46124 -59.14208,95.35768 -59.46708,95.70432 -0.23774,0.25358 -1.00298,-0.19215 -3.70234,-2.1565 l 0,0 z"
       id="path7527"
       inkscape:connector-curvature="0" />
    <text
       xml:space="preserve"
       style="font-size:11.13793564px;font-style:normal;font-variant:normal;font-weight:normal;font-stretch:normal;text-align:start;line-height:125%;letter-spacing:0px;word-spacing:0px;writing-mode:lr-tb;text-anchor:start;fill:#000080;fill-opacity:1;stroke:none;font-family:Sans;-inkscape-font-specification:Sans"
       x="345.90201"
       y="188.2206"
       id="text7537"
       sodipodi:linespacing="125%"><tspan
         sodipodi:role="line"
         id="tspan7539"
         x="345.90201"
         y="188.2206"
         style="font-size:22.27587128px;fill:#000080">dx<tspan
   style="font-size:65%;baseline-shift:sub"
   id="tspan3984">p</tspan></tspan></text>
    <text
       xml:space="preserve"
       style="font-size:12px;font-style:normal;font-variant:normal;font-weight:normal;font-stretch:normal;text-align:start;line-height:125%;letter-spacing:0px;word-spacing:0px;writing-mode:lr-tb;text-anchor:start;fill:#000000;fill-opacity:1;stroke:none;font-family:Sans;-inkscape-font-specification:Sans"
       x="571.69403"
       y="177.64882"
       id="text7545"
       sodipodi:linespacing="125%"><tspan
         sodipodi:role="line"
         id="tspan7547"
         x="571.69403"
         y="177.64882"
         style="font-size:20px">S</tspan></text>
    <text
       xml:space="preserve"
       style="font-size:12px;font-style:normal;font-variant:normal;font-weight:normal;font-stretch:normal;text-align:start;line-height:125%;letter-spacing:0px;word-spacing:0px;writing-mode:lr-tb;text-anchor:start;fill:#000000;fill-opacity:1;stroke:none;font-family:Sans;-inkscape-font-specification:Sans"
       x="435.74677"
       y="216.64421"
       id="text7555"
       sodipodi:linespacing="125%"><tspan
         sodipodi:role="line"
         id="tspan7557"
         x="435.74677"
         y="216.64421"
         style="font-size:20px">T<tspan
   style="font-size:65%;baseline-shift:sub"
   id="tspan6387">p</tspan>(S)</tspan></text>
    <path
       style="fill:none;stroke:#000000;stroke-width:0.75146437;stroke-linecap:butt;stroke-linejoin:miter;stroke-miterlimit:4;stroke-opacity:1;stroke-dasharray:none"
       d="m 653.9848,196.12365 -3.23588,-4.21475"
       id="path12180-1-7"
       inkscape:connector-curvature="0"
       inkscape:transform-center-y="0.22359749" />
    <path
       style="fill:#000080;fill-opacity:1;stroke:#000080;stroke-width:0.17677669;stroke-opacity:1"
       d="m 525.78297,183.23444 c -1.21534,-0.1259 -2.46708,-0.23553 -2.78164,-0.24362 l -0.57192,-0.0147 0.30676,-0.49114 c 0.63273,-1.01305 3.13965,-4.4501 3.24885,-4.45427 0.0625,-0.002 0.15583,0.0951 0.20735,0.21664 0.0515,0.12153 0.61253,1.35455 1.2467,2.74003 0.91376,1.99633 1.09083,2.5146 0.85332,2.49753 -0.16484,-0.0119 -1.29408,-0.12456 -2.50942,-0.25046 z"
       id="path6389"
       inkscape:connector-curvature="0" />
    <path
       style="opacity:0.40000000000000002;fill:#0064c8;fill-opacity:1;stroke:#000080;stroke-width:0.17677668999999999;stroke-opacity:1"
       d="m 499.23341,240.88101 c -41.09666,-11.59279 -74.96945,-21.15042 -75.27287,-21.23916 l -0.55167,-0.16135 20.89017,-32.88047 c 11.48959,-18.08425 20.91492,-32.90773 20.94517,-32.94106 0.11219,-0.12359 88.2927,24.81407 88.2927,24.96938 0,0.3168 -1.3681,1.96593 -1.84025,2.21828 -0.64263,0.34346 -0.88429,0.16844 -1.76993,-1.28189 -0.83513,-1.36761 -1.30338,-1.75051 -2.14072,-1.75051 -1.02512,0 -2.09277,0.83801 -3.23869,2.54208 -0.67656,1.0061 -0.6858,1.15419 -0.089,1.42612 0.41963,0.1912 0.49638,0.16871 0.7513,-0.22017 1.08853,-1.66058 2.25779,-2.73141 2.7685,-2.53544 0.13862,0.0532 0.54359,0.58569 0.89993,1.18332 0.87258,1.46344 1.25391,1.85741 1.91849,1.98208 1.08037,0.20268 2.49259,-0.79043 3.58658,-2.52218 0.26377,-0.41754 0.53589,-0.7593 0.60471,-0.75948 0.21319,-5.3e-4 60.49579,17.00348 60.73087,17.13047 0.15224,0.0822 -6.32026,10.41938 -20.68288,33.03232 -11.49745,18.10194 -20.94423,32.90652 -20.99285,32.89905 -0.0486,-0.007 -33.71292,-9.49859 -74.80959,-21.09139 z m 35.21162,1.33609 0,-2.80763 0.66689,0.6669 c 1.67959,1.67959 4.85243,1.33434 6.3201,-0.68773 0.76868,-1.05903 1.14473,-2.43836 1.14473,-4.19872 0,-2.47757 -0.88847,-4.4097 -2.44984,-5.32757 -0.69925,-0.41106 -1.01648,-0.48175 -2.14635,-0.47826 -1.48057,0.005 -2.50159,0.40851 -3.16527,1.25225 l -0.37026,0.47071 0,-0.73094 0,-0.73095 -0.97228,0 -0.97227,0 0,7.68979 0,7.68978 0.97227,0 0.97228,0 0,-2.80763 z m -11.83755,-3.62803 c 0.87718,-0.58049 1.47951,-1.81887 1.36822,-2.81302 l -0.0827,-0.7392 26.91427,-18.86998 c 14.80286,-10.37848 27.02132,-18.90901 27.15215,-18.95672 0.14809,-0.054 0.57153,0.41042 1.12176,1.23031 0.48614,0.72438 0.95065,1.29758 1.03225,1.27379 0.1414,-0.0412 3.87581,-7.92543 3.78452,-7.98999 -0.10816,-0.0765 -8.62643,0.74783 -8.7227,0.8441 -0.0595,0.0595 0.31022,0.71332 0.82155,1.45298 0.52647,0.76158 0.86025,1.40608 0.7696,1.48604 -0.36712,0.32381 -25.50211,17.87432 -25.59874,17.87432 -0.0581,0 -0.0857,-0.0729 -0.0614,-0.16211 0.0568,-0.20847 -0.79036,-1.60565 -0.9736,-1.60565 -0.19883,0 -1.54547,0.90891 -1.54547,1.04311 0,0.15376 0.90854,1.49528 1.10003,1.62428 0.085,0.0573 -5.92747,4.36869 -13.36108,9.58094 -13.35748,9.36591 -13.52207,9.47441 -14.06234,9.27048 -0.47197,-0.17815 -0.54543,-0.29163 -0.53762,-0.8305 0.005,-0.34329 1.02238,-11.44289 2.26091,-24.66579 l 2.25187,-24.04163 1.04368,0.0372 c 0.93212,0.0332 1.08872,0.0947 1.4651,0.57566 l 0.42143,0.53848 0.78226,-0.56178 c 0.72086,-0.51768 0.76353,-0.59062 0.54364,-0.92922 -0.13124,-0.20209 -0.34946,-0.54642 -0.48494,-0.76518 -0.30081,-0.48574 -0.41657,-0.49179 -1.03154,-0.0539 l -0.48291,0.34386 -0.37073,-0.76307 -0.37073,-0.76307 0.4286,-0.22938 c 0.54227,-0.29022 0.53716,-0.43216 -0.0437,-1.21361 -0.25976,-0.34947 -0.49159,-0.66174 -0.51519,-0.69392 -0.0236,-0.0322 -0.19497,0.0229 -0.38083,0.12234 -0.29657,0.15872 -0.38312,0.0739 -0.70704,-0.69279 -0.20301,-0.4805 -0.44901,-0.87364 -0.54667,-0.87364 -0.0977,0 -0.34964,0.27842 -0.55996,0.61872 -0.39774,0.64357 -0.6035,0.75259 -0.80501,0.42654 -0.0826,-0.13361 -0.17506,-0.13589 -0.30346,-0.008 -0.1284,0.1284 -0.11698,0.26627 0.0375,0.45236 0.18205,0.21935 0.15135,0.3822 -0.17008,0.9023 l -0.39223,0.63463 -0.38844,-0.36492 -0.38843,-0.36491 -0.7511,0.64291 -0.7511,0.64291 0.55735,0.57503 c 0.34942,0.36051 0.48567,0.61935 0.36521,0.69379 -0.10567,0.0653 -0.19214,0.22188 -0.19214,0.34792 0,0.1537 0.38668,0.26528 1.17421,0.33882 0.64582,0.0603 1.20163,0.13707 1.23514,0.17058 0.0658,0.0659 -4.49436,49.29702 -4.57209,49.3595 -0.31033,0.24945 -0.91099,0.43951 -1.02079,0.32299 -0.0772,-0.0819 -5.16854,-5.35945 -11.31407,-11.72783 -6.14553,-6.36838 -11.56872,-12.05617 -12.05154,-12.63953 -0.48281,-0.58336 -1.0134,-1.14021 -1.17909,-1.23744 -0.16569,-0.0972 -4.8616,-4.89944 -10.43535,-10.67158 l -10.1341,-10.49481 1.20235,-1.21163 c 0.66129,-0.6664 1.16694,-1.24395 1.12368,-1.28345 -0.14883,-0.13586 -8.34267,-2.42814 -8.4163,-2.35451 -0.0597,0.0597 1.09947,4.89999 1.9058,7.95836 l 0.17946,0.68072 1.23938,-1.19652 1.23937,-1.19651 1.91701,1.93001 c 1.05435,1.06151 11.26006,11.61994 22.67935,23.46317 l 20.76235,21.53315 -0.0872,0.77386 c -0.18703,1.65941 0.42027,2.83 1.80511,3.47936 0.92603,0.43422 2.20162,0.31919 3.1074,-0.28023 l 0,0 z m -72.13138,-16.81577 0,-1.68467 0.48613,0.35746 c 1.28604,0.94564 3.2833,0.44485 4.08743,-1.02487 0.50573,-0.92433 0.68072,-2.61945 0.38373,-3.71712 -0.11947,-0.44153 -0.49509,-1.07825 -0.87871,-1.48952 -0.61542,-0.65976 -0.75809,-0.7247 -1.74988,-0.79644 -0.87143,-0.063 -1.20035,-0.007 -1.70427,0.29032 -0.49901,0.29442 -0.62443,0.31636 -0.62443,0.10922 0,-0.18455 -0.20365,-0.2592 -0.70711,-0.2592 l -0.70711,0 0,4.94975 0,4.94974 0.70711,0 0.70711,0 0,-1.68467 z m 12.02081,-2.4735 c 0,-0.0508 -0.30875,-0.70706 -0.68611,-1.45841 -0.37736,-0.75135 -0.91123,-2.04227 -1.18638,-2.8687 -0.47286,-1.42031 -0.50026,-1.67202 -0.50026,-4.59619 0,-2.92418 0.0274,-3.17588 0.50026,-4.59619 0.27515,-0.82644 0.80902,-2.11735 1.18638,-2.8687 0.37736,-0.75135 0.68611,-1.40764 0.68611,-1.45841 0,-0.0508 -0.38356,-0.0923 -0.85236,-0.0923 l -0.85235,0 -0.72024,1.28163 c -2.89513,5.15179 -2.89513,10.31617 0,15.46796 l 0.72024,1.28163 0.85235,0 c 0.4688,0 0.85236,-0.0415 0.85236,-0.0923 z m 18.14117,-1.08355 c 1.68735,-3.01726 2.26779,-5.29609 2.14677,-8.42833 -0.0976,-2.52613 -0.67704,-4.56465 -1.96826,-6.92443 l -0.77383,-1.41421 -0.90636,-0.0534 c -0.4985,-0.0294 -0.90636,-0.004 -0.90636,0.0569 0,0.0607 0.19317,0.44271 0.42928,0.84893 0.65068,1.11951 1.43669,3.22555 1.7931,4.80445 0.79724,3.53181 0.0686,8.14212 -1.7931,11.34519 -0.23611,0.40622 -0.42928,0.78408 -0.42928,0.83969 0,0.0556 0.39385,0.1011 0.87523,0.1011 l 0.87523,0 0.65758,-1.17586 z m -8.15329,-1.50601 c 2.2626,-0.56141 3.46405,-2.33555 3.17085,-4.68228 -0.26775,-2.14297 -1.6256,-3.23719 -4.87595,-3.92931 -2.67159,-0.56887 -3.33303,-1.04026 -3.33303,-2.37536 0,-0.54019 0.12401,-0.80946 0.5852,-1.27065 1.10651,-1.10651 3.25853,-1.24737 5.4799,-0.35868 0.61715,0.2469 1.17551,0.44891 1.24081,0.44891 0.0653,0 0.11871,-0.46471 0.11871,-1.03268 l 0,-1.03268 -0.66291,-0.19516 c -4.80367,-1.41416 -8.61687,-0.0621 -8.8483,3.13743 -0.10914,1.50887 0.0769,2.23192 0.77223,3.00159 0.73973,0.8188 1.79716,1.29104 3.78923,1.69226 2.64151,0.53202 3.44715,1.15222 3.44715,2.65367 0,1.63778 -1.09675,2.40666 -3.42313,2.39979 -1.33258,-0.004 -2.63915,-0.3311 -3.87554,-0.97047 -0.30269,-0.15652 -0.59786,-0.28459 -0.65594,-0.28459 -0.0581,0 -0.0819,0.49423 -0.053,1.09829 l 0.0526,1.09828 1.06066,0.32877 c 2.00313,0.62091 4.20488,0.72087 6.0104,0.27287 z m -29.61009,-6.42213 0,-6.45235 2.65165,0 2.65165,0 0,-0.88388 0,-0.88389 -6.27557,0 -6.27558,0 0,0.88389 0,0.88388 2.56326,0 2.56327,0 0,6.45235 0,6.45235 1.06066,0 1.06066,0 0,-6.45235 z m 105.57769,0.44194 c 0.3634,-0.24307 0.66171,-0.51398 0.66291,-0.60203 0.002,-0.12983 -0.28685,-0.56526 -0.99113,-1.49526 -0.0686,-0.0906 -1.22496,0.63907 -1.45827,0.92019 -0.1459,0.1758 -0.059,0.41537 0.35466,0.97787 0.30135,0.40977 0.59813,0.72167 0.65951,0.69311 0.0614,-0.0286 0.40892,-0.25081 0.77232,-0.49388 z m -2.03805,-2.97002 0.74399,-0.49363 -0.5014,-0.75736 c -0.27576,-0.41655 -0.57079,-0.75741 -0.6556,-0.75747 -0.27647,-1.8e-4 -1.48003,0.8144 -1.48003,1.0017 0,0.23973 0.86016,1.50213 1.02284,1.50115 0.0694,-3.5e-4 0.461,-0.22289 0.8702,-0.49439 z m -48.68592,-0.88277 0.65502,-0.6708 -0.70754,-0.6909 -0.70753,-0.69089 -0.70754,0.69089 -0.70754,0.6909 0.65502,0.6708 c 0.36027,0.36895 0.70229,0.67081 0.76006,0.67081 0.0578,0 0.39978,-0.30186 0.76005,-0.67081 z m 47.32321,-2.61184 c 0,-0.19613 -0.94477,-1.49032 -1.08795,-1.49032 -0.18054,0 -1.5637,0.89171 -1.5637,1.00811 0,0.0425 0.24302,0.43047 0.54006,0.86219 l 0.54006,0.78495 0.78576,-0.54062 c 0.43217,-0.29734 0.78577,-0.57828 0.78577,-0.62431 z m -44.81905,0.25914 c 0.34368,-0.30176 0.62487,-0.64413 0.62487,-0.76082 0,-0.1167 -0.27805,-0.48167 -0.61788,-0.81106 l -0.61789,-0.59887 -0.57536,0.51863 c -0.31644,0.28525 -0.65104,0.57904 -0.74355,0.65286 -0.0965,0.077 0.12588,0.43539 0.52201,0.84106 0.37962,0.38876 0.71107,0.70684 0.73657,0.70684 0.0255,0 0.32756,-0.24689 0.67123,-0.54864 z m 47.4707,-3.25206 c 0,-1.31257 0.0276,-2.38649 0.0612,-2.38649 0.0337,0 0.32006,0.12913 0.63641,0.28695 0.77797,0.3881 2.53857,0.50736 3.7567,0.25448 2.03389,-0.42223 3.10324,-1.72297 3.27414,-3.98257 0.15309,-2.02427 -0.43399,-3.23633 -1.88438,-3.89037 -0.68964,-0.31098 -0.70434,-0.33426 -0.36227,-0.57385 1.03828,-0.72724 1.57837,-3.5207 0.9824,-5.08121 -0.35806,-0.93757 -1.25324,-1.77352 -2.17257,-2.02882 -0.36726,-0.10198 -1.26436,-0.18413 -1.99357,-0.18253 -1.50663,0.003 -2.49316,0.35798 -3.24901,1.16812 -0.94735,1.0154 -0.99363,1.50561 -0.99363,10.52636 l 0,8.27642 0.97228,0 0.97227,0 0,-2.38649 z m -44.8135,0.61934 0.68987,-0.7065 -0.60028,-0.61933 c -0.33015,-0.34063 -0.6884,-0.61934 -0.79609,-0.61934 -0.1077,0 -0.46237,0.27502 -0.78816,0.61115 l -0.59235,0.61115 0.60187,0.69971 c 0.33102,0.38485 0.64538,0.70645 0.69857,0.71468 0.0532,0.008 0.40715,-0.30296 0.78657,-0.69152 z m 39.37543,-6.2e-4 c 0.36339,-0.24307 0.6617,-0.50331 0.66291,-0.57832 0.003,-0.19999 -0.9082,-1.543 -1.04714,-1.543 -0.0652,0 -0.45233,0.24553 -0.86039,0.54562 l -0.74194,0.54563 0.56305,0.78402 c 0.30968,0.43122 0.60799,0.76242 0.66291,0.73601 0.0549,-0.0264 0.3972,-0.24689 0.7606,-0.48996 z m -36.78589,-2.41156 0.6593,-0.64379 -0.56346,-0.67885 c -0.3099,-0.37336 -0.63922,-0.68028 -0.73181,-0.68203 -0.22563,-0.004 -1.33425,1.07981 -1.33425,1.3047 0,0.18129 1.05582,1.34376 1.22047,1.34376 0.0497,0 0.38714,-0.2897 0.74975,-0.64379 l 0,0 z m 34.71411,-0.53251 c 0.38717,-0.25806 0.7315,-0.49111 0.76518,-0.51791 0.0337,-0.0268 -0.19206,-0.41685 -0.50163,-0.86681 -0.52841,-0.76801 -0.58627,-0.80289 -0.94512,-0.56977 -0.21024,0.13658 -0.56124,0.35917 -0.78,0.49464 -0.21876,0.13548 -0.39775,0.30844 -0.39775,0.38437 0,0.19826 0.90923,1.54467 1.04312,1.54467 0.0617,0 0.42902,-0.21113 0.8162,-0.46919 z m -31.66018,-2.41323 c 0.14346,-0.22742 0.0536,-0.42141 -0.42274,-0.91289 -0.33269,-0.34326 -0.64896,-0.62292 -0.7028,-0.62147 -0.0539,0.001 -0.41611,0.27372 -0.80501,0.60505 l -0.70711,0.60242 0.696,0.71791 0.69599,0.71792 0.53175,-0.41007 c 0.29247,-0.22554 0.61373,-0.54003 0.71392,-0.69887 l 0,0 z m 29.67144,-0.57109 c 0.36286,-0.24658 0.65975,-0.50084 0.65975,-0.56503 0,-0.21357 -0.92943,-1.46153 -1.08849,-1.46153 -0.2349,0 -1.58209,0.92223 -1.52462,1.0437 0.22118,0.46744 0.96918,1.42722 1.11367,1.42898 0.099,0.001 0.47682,-0.19955 0.83969,-0.44612 z m -27.44434,-2.81855 c -0.3317,-0.34222 -0.6912,-0.62223 -0.7989,-0.62223 -0.10769,0 -0.46593,0.2787 -0.79609,0.61934 l -0.60028,0.61933 0.69269,0.70939 0.6927,0.70938 0.70648,-0.70649 0.70649,-0.70648 -0.60309,-0.62224 0,0 z m -11.19922,1.09508 c 0.4375,-0.24522 1.46963,-1.4906 1.48002,-1.78581 0.004,-0.10816 0.1144,0.0502 0.24576,0.35201 0.36326,0.83449 1.18825,1.3274 2.40658,1.43788 l 1.05305,0.0955 0,-0.90844 0,-0.90844 -0.603,0 c -0.87437,0 -1.39795,-0.69972 -1.66743,-2.2284 l -0.21484,-1.21874 0.97747,-2.91079 c 0.53761,-1.60094 0.97747,-2.97317 0.97747,-3.0494 0,-0.0762 -0.39316,-0.13861 -0.87369,-0.13861 l -0.87369,0 -0.40068,1.2441 -0.40069,1.24409 -0.33651,-0.66957 c -0.75496,-1.50218 -1.65401,-2.03075 -3.45409,-2.03075 -1.24615,0 -2.19998,0.3812 -3.09577,1.23723 -1.05086,1.00422 -1.39349,1.93955 -1.48979,4.06696 -0.19157,4.23234 1.38724,6.4024 4.64934,6.39044 0.68059,-0.002 1.40981,-0.10116 1.62049,-0.21925 l 0,0 z m 36.57045,-1.21112 0.77209,-0.55446 -0.53071,-0.77136 c -0.29189,-0.42425 -0.58227,-0.77136 -0.64529,-0.77136 -0.22123,0 -1.45942,0.93381 -1.45942,1.10066 0,0.1662 0.91603,1.53988 1.03176,1.54722 0.0327,0.002 0.40693,-0.24574 0.83157,-0.5507 l 0,0 z m -22.81197,-1.0359 0.68987,-0.70649 -0.60028,-0.61934 c -0.33016,-0.34063 -0.6884,-0.61933 -0.7961,-0.61933 -0.10769,0 -0.45971,0.27228 -0.78226,0.60506 l -0.58645,0.60507 0.59597,0.71757 c 0.32778,0.39467 0.63948,0.71901 0.69267,0.72076 0.0532,0.002 0.40715,-0.31473 0.78658,-0.7033 l 0,0 z m 20.73946,-1.89382 c 0.35812,-0.26344 0.68062,-0.49844 0.71667,-0.52222 0.0915,-0.0603 -0.92521,-1.64974 -1.05549,-1.65012 -0.0583,-1.8e-4 -0.44218,0.24316 -0.85299,0.54075 -0.70113,0.50789 -0.7315,0.5648 -0.49548,0.92808 0.13829,0.21285 0.36228,0.56599 0.49776,0.78475 0.31311,0.50561 0.39984,0.49969 1.18953,-0.0812 l 0,0 z m -17.57766,-1.08072 c 0.0399,-0.0658 -0.22339,-0.45214 -0.58503,-0.8585 l -0.65753,-0.73883 -0.78255,0.67955 -0.78254,0.67956 0.69133,0.71454 0.69132,0.71454 0.67624,-0.53559 c 0.37194,-0.29458 0.70888,-0.58945 0.74876,-0.65527 l 0,0 z m 1.95723,-3.39293 -0.71,-0.71 -0.69329,0.71 -0.6933,0.71 0.6933,0.71 0.69329,0.71 0.71,-0.71 0.71,-0.71 -0.71,-0.71 z m 13.57886,1.49912 c 0.36287,-0.24657 0.65976,-0.52568 0.65976,-0.62025 0,-0.0946 -0.22595,-0.48385 -0.50212,-0.86508 l -0.50211,-0.69316 -0.77952,0.52185 c -0.42873,0.28702 -0.75648,0.60906 -0.72834,0.71564 0.0718,0.2718 0.93874,1.38932 1.07782,1.38932 0.0631,0 0.41165,-0.20175 0.77451,-0.44832 l 0,0 z m -10.92721,-3.974 -0.71,-0.70999 -0.69329,0.70999 -0.6933,0.71001 0.6933,0.71 0.69329,0.70999 0.71,-0.70999 0.71,-0.71 -0.71,-0.71001 z m -20.14445,-2.80712 c 0.80875,-0.37444 1.35974,-0.93455 2.27876,-2.31651 l 0.64658,-0.97227 -0.3774,-0.30936 c -0.20757,-0.17014 -0.43661,-0.30936 -0.50898,-0.30936 -0.0724,0 -0.46159,0.47048 -0.86495,1.0455 -0.8429,1.20164 -1.67418,1.95971 -2.14897,1.95971 -0.21215,0 -0.53718,-0.35198 -0.91452,-0.99033 -0.32196,-0.54468 -0.80427,-1.25138 -1.07179,-1.57043 -1.17557,-1.40205 -2.9271,-0.67294 -4.66257,1.94087 -0.62973,0.94843 -0.64051,0.9908 -0.31481,1.2373 0.18549,0.14037 0.42692,0.25776 0.5365,0.26085 0.10959,0.003 0.6024,-0.54692 1.09514,-1.22225 0.49274,-0.67533 1.14614,-1.35728 1.45201,-1.51545 0.52112,-0.26949 0.57856,-0.26731 0.91271,0.0346 0.19612,0.17721 0.54494,0.68018 0.77516,1.1177 0.56005,1.06437 0.80775,1.35728 1.4161,1.67453 0.65753,0.3429 0.88826,0.33432 1.75103,-0.0651 l 0,0 z"
       id="path6393"
       inkscape:connector-curvature="0" />
    <path
       style="opacity:0.4;fill:#0064c8;fill-opacity:1;stroke:#000080;stroke-width:0.17677669;stroke-opacity:1"
       d="m 549.15996,197.45233 c -1.47563,-0.73042 -1.4864,-0.77475 -1.42353,-5.85696 0.0611,-4.94129 0.11169,-5.19347 1.18623,-5.91681 0.72255,-0.4864 1.63996,-0.52129 2.49047,-0.0947 0.82232,0.41244 1.09311,0.98237 1.01125,2.12838 -0.1081,1.51329 -1.0154,2.44543 -2.55809,2.62814 l -0.92558,0.10962 0,0.9244 0,0.9244 1.29522,0.0831 c 1.67893,0.10775 2.63958,0.61563 3.03534,1.60474 0.33399,0.83471 0.22009,1.9384 -0.2859,2.77042 -0.6466,1.06326 -2.42792,1.38702 -3.82541,0.69527 l 0,0 z"
       id="path6395"
       inkscape:connector-curvature="0" />
    <path
       style="opacity:0.4;fill:#0064c8;fill-opacity:1;stroke:#000080;stroke-width:0.17677669;stroke-opacity:1"
       d="m 497.41768,192.74666 c -0.69576,-0.17673 -1.21614,-0.67184 -1.62184,-1.54308 -0.83924,-1.80226 -0.40907,-5.35489 0.75971,-6.27425 0.96484,-0.75895 2.33429,-0.57103 2.97601,0.40836 0.14764,0.22532 0.42557,1.12964 0.61762,2.00961 0.34235,1.56855 0.34274,1.61869 0.0202,2.55616 -0.5319,1.546 -1.04798,2.41634 -1.60298,2.70334 -0.5406,0.27955 -0.57993,0.28434 -1.14872,0.13986 l 0,0 z"
       id="path6397"
       inkscape:connector-curvature="0" />
    <path
       style="opacity:0.4;fill:#0064c8;fill-opacity:1;stroke:#000080;stroke-width:0.17677669;stroke-opacity:1"
       d="m 451.3983,219.46977 c -0.60858,-0.42627 -0.9222,-1.2031 -0.9222,-2.28427 0,-1.26194 0.3591,-2.11518 1.03795,-2.46623 0.66446,-0.34361 0.96521,-0.34709 1.60056,-0.0185 1.32487,0.68511 1.43812,3.86791 0.16925,4.75666 -0.5203,0.36443 -1.37491,0.37004 -1.88556,0.0124 l 0,0 z"
       id="path6399"
       inkscape:connector-curvature="0" />
    <path
       style="opacity:0.4;fill:#0064c8;fill-opacity:1;stroke:#000080;stroke-width:0.17677669;stroke-opacity:1"
       d="m 536.01555,238.93783 c -0.94905,-0.64489 -1.41143,-1.8675 -1.41143,-3.73205 0,-1.60407 0.32101,-2.62266 1.07339,-3.40594 0.96583,-1.00549 2.75639,-1.00549 3.72222,0 1.66797,1.73649 1.43154,6.09814 -0.3908,7.20918 -0.84655,0.51612 -2.17559,0.48452 -2.99338,-0.0712 l 0,0 z"
       id="path6401"
       inkscape:connector-curvature="0" />
  </g>
</svg>
